<svg xmlns="http://www.w3.org/2000/svg" viewBox="0 0 24 24" fill="currentColor"><path d="M12 11a5 5 0 0 1 5 5v6H7v-6a5 5 0 0 1 5-5m-6.712 3.006a7 7 0 0 0-.28 1.65L5 16v6H2v-4.5a3.5 3.5 0 0 1 3.119-3.48zm13.424 0A3.5 3.5 0 0 1 22 17.5V22h-3v-6c0-.693-.1-1.362-.288-1.994M5.5 8a2.5 2.5 0 1 1 0 5 2.5 2.5 0 0 1 0-5m13 0a2.5 2.5 0 1 1 0 5 2.5 2.5 0 0 1 0-5M12 2a4 4 0 1 1 0 8 4 4 0 0 1 0-8" /><circle cx="19" cy="4" r="4.5" fill="currentColor" opacity="0.15" /><path d="M19 1.75a.75.75 0 0 1 .75.75v1h1a.75.75 0 0 1 0 1.5h-1v1a.75.75 0 0 1-1.5 0v-1h-1a.75.75 0 0 1 0-1.5h1v-1A.75.75 0 0 1 19 1.75" /></svg>
