<svg xmlns="http://www.w3.org/2000/svg" viewBox="0 0 1920 1080" preserveAspectRatio="xMidYMid slice">
  <defs>
    <linearGradient id="paper" x1="0" y1="0" x2="1" y2="1">
      <stop offset="0%" stop-color="#D6E4F0"/>
      <stop offset="100%" stop-color="#C5DCEF"/>
    </linearGradient>
    <pattern id="grid" x="0" y="0" width="40" height="40" patternUnits="userSpaceOnUse">
      <path d="M40 0 L0 0 0 40" fill="none" stroke="#FFFFFF" stroke-opacity="0.35" stroke-width="0.5"/>
    </pattern>
    <pattern id="majorgrid" x="0" y="0" width="200" height="200" patternUnits="userSpaceOnUse">
      <path d="M200 0 L0 0 0 200" fill="none" stroke="#FFFFFF" stroke-opacity="0.6" stroke-width="0.8"/>
    </pattern>
  </defs>
  <rect width="1920" height="1080" fill="url(#paper)"/>
  <rect width="1920" height="1080" fill="url(#grid)"/>
  <rect width="1920" height="1080" fill="url(#majorgrid)"/>
  <g stroke="#FFFFFF" stroke-opacity="0.55" fill="none" stroke-width="1">
    <circle cx="320" cy="780" r="160"/>
    <circle cx="320" cy="780" r="100"/>
    <circle cx="320" cy="780" r="50"/>
    <line x1="120" y1="780" x2="520" y2="780"/>
    <line x1="320" y1="580" x2="320" y2="980"/>
    <rect x="1440" y="180" width="320" height="200"/>
    <line x1="1440" y1="180" x2="1760" y2="380"/>
    <line x1="1760" y1="180" x2="1440" y2="380"/>
  </g>
  <g stroke="#FFFFFF" stroke-opacity="0.45" fill="none" stroke-width="0.8">
    <path d="M1500 700 L1700 700 L1700 760 L1620 820 L1500 820 Z"/>
    <line x1="1500" y1="760" x2="1620" y2="760"/>
    <line x1="1620" y1="760" x2="1620" y2="820"/>
  </g>
  <g font-family="Courier, monospace" font-size="11" fill="#FFFFFF" fill-opacity="0.5">
    <text x="540" y="784">R = 160</text>
    <text x="1450" y="170">DETAIL A</text>
    <text x="1510" y="694">REV 03</text>
  </g>
</svg>
